<?xml version="1.0" encoding="iso-8859-1"?>
<svg xmlns="http://www.w3.org/2000/svg" xmlns:xlink="http://www.w3.org/1999/xlink" viewBox="0 0 50 50" width="50px" height="50px">
	<path style="fill:none;stroke:#000000;stroke-width:2;stroke-miterlimit:10;" d="M22.58,7.201C16.761,8.198,13,12.5,13,19c0,15.125-6,14.564-6,17c0,4,9,5,18,5s18-1,18-5c0-2.436-6-1.875-6-17c0-6.5-3.822-10.877-9.723-11.823"/>
	<circle style="fill:none;stroke:#000000;stroke-width:2;stroke-miterlimit:10;" cx="25" cy="5" r="3"/>
	<path style="fill:none;stroke:#000000;stroke-width:2;stroke-miterlimit:10;" d="M29.585,41.003C29.852,41.615,30,42.29,30,43c0,2.762-2.238,5-5,5s-5-2.238-5-5c0-0.663,0.129-1.296,0.364-1.875"/>
</svg>